<svg width="28" height="28" viewBox="0 0 28 28" fill="none" xmlns="http://www.w3.org/2000/svg">
<path d="M25.6666 14V19.8333C25.6666 23.3333 23.3333 25.6667 19.8333 25.6667H8.16665C4.66665 25.6667 2.33331 23.3333 2.33331 19.8333V14C2.33331 10.8267 4.24665 8.60999 7.22165 8.23665C7.52498 8.18999 7.83998 8.16666 8.16665 8.16666H19.8333C20.1366 8.16666 20.4283 8.17831 20.7083 8.22498C23.7183 8.57498 25.6666 10.8033 25.6666 14Z" stroke="#7D23E0" stroke-width="2" stroke-linecap="round" stroke-linejoin="round"/>
<path d="M20.71 8.22501C20.43 8.17834 20.1383 8.16669 19.835 8.16669H8.16833C7.84166 8.16669 7.52666 8.19002 7.22333 8.23669C7.38666 7.91002 7.61999 7.60669 7.89999 7.32669L11.6917 3.52334C13.29 1.93668 15.88 1.93668 17.4783 3.52334L19.52 5.58837C20.2667 6.32337 20.6633 7.25668 20.71 8.22501Z" stroke="#7D23E0" stroke-width="2" stroke-linecap="round" stroke-linejoin="round"/>
<path d="M25.6666 14.5833H22.1666C20.8833 14.5833 19.8333 15.6333 19.8333 16.9167C19.8333 18.2 20.8833 19.25 22.1666 19.25H25.6666" stroke="#7D23E0" stroke-width="1.5" stroke-linecap="round" stroke-linejoin="round"/>
</svg>
