<svg width="24" height="18" viewBox="0 0 24 18" fill="none" xmlns="http://www.w3.org/2000/svg">
<path d="M2 9V3M12.5 15V12.75M2 15V12M12.5 9.75V3M7.25 5.25V3M7.25 15V8.25" stroke="black" stroke-linecap="round"/>
<path d="M2 12C2.82843 12 3.5 11.3284 3.5 10.5C3.5 9.67157 2.82843 9 2 9C1.17157 9 0.5 9.67157 0.5 10.5C0.5 11.3284 1.17157 12 2 12Z" stroke="black" stroke-linecap="round"/>
<path d="M7.25 8.25C8.07843 8.25 8.75 7.57843 8.75 6.75C8.75 5.92157 8.07843 5.25 7.25 5.25C6.42157 5.25 5.75 5.92157 5.75 6.75C5.75 7.57843 6.42157 8.25 7.25 8.25Z" stroke="black" stroke-linecap="round"/>
<path d="M12.5 12.75C13.3284 12.75 14 12.0784 14 11.25C14 10.4216 13.3284 9.75 12.5 9.75C11.6716 9.75 11 10.4216 11 11.25C11 12.0784 11.6716 12.75 12.5 12.75Z" stroke="black" stroke-linecap="round"/>
</svg>
