<svg width="16" height="16" viewBox="0 0 16 16" fill="none" xmlns="http://www.w3.org/2000/svg">
<path d="M8.00004 11.3333C8.18893 11.3333 8.34737 11.2693 8.47537 11.1413C8.60337 11.0133 8.66715 10.8551 8.66671 10.6667C8.66671 10.4778 8.60271 10.3193 8.47471 10.1913C8.34671 10.0633 8.18848 9.99955 8.00004 10C7.81115 10 7.65271 10.064 7.52471 10.192C7.39671 10.32 7.33293 10.4782 7.33337 10.6667C7.33337 10.8556 7.39737 11.014 7.52537 11.142C7.65337 11.27 7.8116 11.3338 8.00004 11.3333ZM7.33337 8.66667H8.66671V4.66667H7.33337V8.66667ZM8.00004 14.6667C7.07782 14.6667 6.21115 14.4916 5.40004 14.1413C4.58893 13.7911 3.88337 13.3162 3.28337 12.7167C2.68337 12.1167 2.20849 11.4111 1.85871 10.6C1.50893 9.78889 1.33382 8.92222 1.33337 8C1.33337 7.07778 1.50849 6.21111 1.85871 5.4C2.20893 4.58889 2.68382 3.88333 3.28337 3.28333C3.88337 2.68333 4.58893 2.20844 5.40004 1.85867C6.21115 1.50889 7.07782 1.33378 8.00004 1.33333C8.92226 1.33333 9.78893 1.50844 10.6 1.85867C11.4112 2.20889 12.1167 2.68378 12.7167 3.28333C13.3167 3.88333 13.7918 4.58889 14.142 5.4C14.4923 6.21111 14.6672 7.07778 14.6667 8C14.6667 8.92222 14.4916 9.78889 14.1414 10.6C13.7912 11.4111 13.3163 12.1167 12.7167 12.7167C12.1167 13.3167 11.4112 13.7918 10.6 14.142C9.78893 14.4922 8.92226 14.6671 8.00004 14.6667Z" fill="#F04438"/>
</svg>
