<svg width="58" height="58" viewBox="0 0 58 58" fill="none" xmlns="http://www.w3.org/2000/svg">
<path d="M5.38086 11.7812H48.9375V5.83622C48.9375 5.56802 48.878 5.30317 48.7633 5.06075C48.6486 4.81833 48.4815 4.6044 48.2741 4.43437C48.0667 4.26434 47.8241 4.14247 47.5639 4.07753C47.3037 4.01259 47.0323 4.0062 46.7693 4.05884L5.0818 10.9101C4.77138 10.9719 4.48255 11.1139 4.24406 11.322C4.00557 11.5301 3.82572 11.797 3.72242 12.0961C4.25039 11.8874 4.81312 11.7805 5.38086 11.7812ZM52.5059 14.5H5.38086C4.90015 14.5 4.43914 14.6909 4.09923 15.0308C3.75932 15.3707 3.56836 15.8318 3.56836 16.3125V48.9375C3.56836 49.4182 3.75932 49.8792 4.09923 50.2191C4.43914 50.559 4.90015 50.75 5.38086 50.75H52.5059C52.9866 50.75 53.4476 50.559 53.7875 50.2191C54.1274 49.8792 54.3184 49.4182 54.3184 48.9375V16.3125C54.3184 15.8318 54.1274 15.3707 53.7875 15.0308C53.4476 14.6909 52.9866 14.5 52.5059 14.5ZM41.6875 36.25C40.9705 36.25 40.2697 36.0374 39.6736 35.639C39.0774 35.2407 38.6128 34.6746 38.3384 34.0122C38.0641 33.3498 37.9923 32.6209 38.1322 31.9178C38.272 31.2146 38.6173 30.5687 39.1242 30.0617C39.6312 29.5547 40.2771 29.2095 40.9803 29.0696C41.6835 28.9298 42.4123 29.0015 43.0747 29.2759C43.7371 29.5503 44.3033 30.0149 44.7016 30.611C45.0999 31.2072 45.3125 31.908 45.3125 32.625C45.3125 33.5864 44.9306 34.5084 44.2508 35.1882C43.5709 35.868 42.6489 36.25 41.6875 36.25Z" fill="#7D23E0"/>
<path d="M3.54907 29.3965V13.1406C3.54907 11.7439 4.19704 11.0472 5.29587 10.875C9.28337 10.2486 17.5959 9.91211 17.5959 9.91211C17.5959 9.91211 16.6523 11.7246 14.5 11.7246V14.5C16.5957 14.5 18.0491 17.1621 18.0491 17.1621L9.60962 26.7344L3.54907 29.3965Z" fill="#7D23E0"/>
</svg>
